<svg aria-label="Tequila Mi Campo Logo" role="img" viewBox="0 0 377.282 80" xmlns="http://www.w3.org/2000/svg">
<defs>
<style>.cls-1 {
          fill: #000000;
        }</style>
</defs>
<g transform="translate(0 80) rotate(-90)" data-name="Group 1257">
<g data-name="Group 1228">
<g data-name="Group 1223">
<path class="cls-1" transform="translate(-8.969 -.023)" d="M88.085,20.8,85.344.2H79.952c.088.088.265.265.265.884L77.654,20.708a1.235,1.235,0,0,1-.354.707h4.42a.839.839,0,0,1-.265-.884l.265-2.475h1.945l.177,2.475a1.162,1.162,0,0,1-.265.8h5.039Q88.217,21.46,88.085,20.8Zm-6.1-6.365.8-6.983.53,6.983Z" data-name="Path 967"></path>
<path class="cls-1" transform="translate(-6.544 -.035)" d="M56.4.3c.088.088.265.265.265.884V20.631a1.585,1.585,0,0,1-.265.884h4.862a1.756,1.756,0,0,1-.354-.972h0V1.272h0A1.256,1.256,0,0,1,61.262.3H56.4Z" data-name="Path 968"></path>
<path class="cls-1" transform="translate(-4.827 -.035)" d="M47.346.3c.088,0,.265.265.265.707v16.53a.821.821,0,0,1-1.591,0V1.272h0A1.256,1.256,0,0,1,46.373.3H41.6c.088.088.265.265.265.884V17.626c0,2.122,2.122,4.155,4.95,4.155A4.4,4.4,0,0,0,51.5,17.626V1.272h0A1.256,1.256,0,0,1,51.854.3H47.346Z" data-name="Path 969"></path>
<path class="cls-1" transform="translate(-7.565 -.035)" d="M72.979,17.8H69.8V1.007A4.011,4.011,0,0,1,70.062.3H65.2a.973.973,0,0,1,.265.8V20.631a1.162,1.162,0,0,1-.265.8h8.663V17.272h0C73.863,17.449,73.6,17.714,72.979,17.8Z" data-name="Path 970"></path>
<path class="cls-1" transform="translate(-1.613 -.035)" d="M21.679,3.836a.99.99,0,0,1,.884.442h0V2.068h0V.3H13.9a1.28,1.28,0,0,1,.354.8V20.631a1.162,1.162,0,0,1-.265.8h8.663V17.272h0a1.252,1.252,0,0,1-.884.442H18.585v-5.3h1.768a.99.99,0,0,1,.884.442h0V12.41h0v-3.8h0V8.167h0a1.252,1.252,0,0,1-.884.442H18.585V3.836Z" data-name="Path 971"></path>
<path class="cls-1" transform="translate(0 -.035)" d="M0,.3V4.278H0c.088-.088.265-.265.884-.265H2.829v16.8a1.162,1.162,0,0,1-.265.8H7.425a1.756,1.756,0,0,1-.354-.972h0V4.013H8.928a1.279,1.279,0,0,1,.884.265h0V.3H0Z" data-name="Path 972"></path>
<path class="cls-1" transform="translate(-3.133)" d="M32.039,0C29.21,0,27,2.3,27,4.42V17.326a4.825,4.825,0,0,0,3.624,4.243c.177.088.442.088.707.177L32.569,24.4h4.42a2.645,2.645,0,0,1-.972-.884L34.6,21.127a4.663,4.663,0,0,0,2.387-3.713V4.42C37.077,2.3,34.867,0,32.039,0Zm-.8,4.243a.821.821,0,0,1,1.591,0V17.5a.821.821,0,0,1-1.591,0V4.243Z" data-name="Path 973"></path>
</g>
<g transform="translate(0 32.265)" data-name="Group 1227">
<g data-name="Group 1226">
<g data-name="Group 1225">
<path class="cls-1" transform="translate(-.128 -61.375)" d="M79.067,311.629h0l.088-23.867-35.624-6.188,35.624-5.746V250.9h-.088a4.947,4.947,0,0,1-3.359,1.149H4.548c-2.3,0-3.182-.884-3.359-1.149H1.1v16.265h.088a4.947,4.947,0,0,1,3.359-1.149H54.934L1.1,274.767v10.254l53.657,9.724H3.664a3.9,3.9,0,0,1-2.475-1.061H1.1v17.768h.088a4.559,4.559,0,0,1,3.094-1.061H75.973A4.734,4.734,0,0,1,79.067,311.629Z" data-name="Path 974"></path>
<g data-name="Group 1224">
<path class="cls-1" transform="translate(-.128 -36.5)" d="M79.155,73.362,43.531,67.174l35.624-5.746V36.5h-.088a4.947,4.947,0,0,1-3.359,1.149H4.548c-2.3,0-3.182-.884-3.359-1.149H1.1V52.765h.088a4.947,4.947,0,0,1,3.359-1.149H54.934L1.1,60.456V70.71l53.657,9.724H3.664a3.9,3.9,0,0,1-2.475-1.061H1.1V97.141h.088A4.559,4.559,0,0,1,4.282,96.08H75.973a4.559,4.559,0,0,1,3.094,1.061h.088Z" data-name="Path 975"></path>
<rect class="cls-1" transform="translate(66.033 69.923)" width="12.994" height="15.116" data-name="Rectangle 367"></rect>
<path class="cls-1" transform="translate(0 -50.179)" d="M80,173.229c0-10.343-7.425-18.829-15.293-18.829H15.293C7.425,154.4,0,162.886,0,173.229s7.425,18.564,15.293,18.564H30.851V176.234H15.735c-1.326,0-2.3-1.326-2.3-3.006s.972-3.006,2.3-3.006H64.354c1.326,0,2.3,1.326,2.3,3.006s-.972,3.006-2.3,3.006h-15.2v15.558H64.707C72.575,191.7,80,183.571,80,173.229Z" data-name="Path 976"></path>
<path class="cls-1" transform="translate(-.128 -70.274)" d="M79.155,348.02V327.688h-.088a4.329,4.329,0,0,1-3.271,1.061H4.459c-2.21,0-3.094-.884-3.271-1.149H1.1v17.945h.088a4.329,4.329,0,0,1,3.271-1.061H22.05v3.536c0,7.514,4.331,16.53,14.232,16.53H64.835C74.912,364.462,79.155,355.534,79.155,348.02Zm-40.044,1.326c-2.21,0-3.094-.972-3.094-2.74v-2.122H65.365v2.122c0,1.768-.884,2.74-3.094,2.74Z" data-name="Path 977"></path>
<path class="cls-1" transform="translate(0 -75.843)" d="M80,394.164c0-10.343-8.4-18.564-16.265-18.564H16.265C8.4,375.6,0,383.821,0,394.164s8.4,18.564,16.265,18.564h47.47C71.6,412.727,80,404.506,80,394.164Zm-64.265,3.006c-1.326,0-2.3-1.326-2.3-3.006s.972-3.006,2.3-3.006H64.354c1.326,0,2.3,1.326,2.3,3.006s-.972,3.006-2.3,3.006Z" data-name="Path 978"></path>
<path class="cls-1" transform="translate(-.128 -45.527)" d="M4.548,130.565h54.1V114.3h-.088a4.329,4.329,0,0,1-3.271,1.061H4.371A5.026,5.026,0,0,1,1.1,114.3h0v17.414h.088A4.7,4.7,0,0,1,4.548,130.565Z" data-name="Path 979"></path>
<path class="cls-1" transform="translate(-.128 -55.481)" d="M3.664,240.144l75.492-10.166V210.089h-.088a3.688,3.688,0,0,1-3.182.8L3.752,201.338A4.215,4.215,0,0,1,1.188,200.1H1.1v16.177h.088a3.591,3.591,0,0,1,3.182-1.061l8.928,1.061v6.983l-9.1.707a3.523,3.523,0,0,1-3.006-1.061H1.1v18.387h.088A4.307,4.307,0,0,1,3.664,240.144Zm23.514-22.63,25.635,2.917-25.635,1.945v-4.862Z" data-name="Path 980"></path>
</g>
</g>
</g>
</g>
</g>
<g transform="translate(.707 369.77)" data-name="Group 1229">
<path class="cls-1" transform="translate(-.812 -418.3)" d="M5.5,420.245H.9v-.972H5.5V418.3h.884v3.006H5.5Z" data-name="Path 981"></path>
<path class="cls-1" transform="translate(-.8 -418.75)" d="M.888,425.294H4.866l-1.238-.177L.8,424.5v-.707l2.829-.53,1.238-.177H.888V422.2H6.369v1.326l-2.829.53-1.061.177,1.061.177,2.829.53v1.326H.888Z" data-name="Path 982"></path>
</g>
</g>
</svg>